<svg xmlns="http://www.w3.org/2000/svg" width="800" height="500" viewBox="0 0 800 500"><defs><linearGradient id="s7" x1="0" y1="0" x2="0" y2="1"><stop offset="0" stop-color="#B9C6FF"/><stop offset="1" stop-color="#E9EDFF"/></linearGradient></defs><rect width="800" height="500" fill="url(#s7)"/><rect x="0" y="380" width="800" height="120" fill="#A7B3E6"/><g transform="translate(180 170)"><rect x="0" y="90" width="440" height="200" rx="20" fill="#2F4C8C"/><rect x="20" y="110" width="400" height="160" rx="14" fill="#5E7FC9"/><path d="M0 90 L60 -40 L500 -40 L440 90 Z" fill="#3A5BA3"/><rect x="40" y="130" width="140" height="90" rx="10" fill="#F7C6D9"/><rect x="200" y="140" width="120" height="80" rx="10" fill="#FFE6A3"/><rect x="330" y="130" width="70" height="110" rx="10" fill="#9BE3C9"/><rect x="70" y="230" width="90" height="30" rx="6" fill="#E94B5B"/><circle cx="345" cy="250" r="0"/></g><g transform="translate(560 410)"><rect width="70" height="90" rx="8" fill="#8A2537"/><circle cx="35" cy="40" r="16" fill="none" stroke="#E7C26B" stroke-width="4"/></g><g transform="translate(120 420) rotate(-20)"><rect width="110" height="12" rx="6" fill="#4FB6E8"/><rect x="96" y="-12" width="20" height="16" rx="4" fill="#fff"/></g><path d="M660 470 C 700 420 740 470 760 430" stroke="#30384A" stroke-width="7" fill="none"/><rect x="740" y="410" width="34" height="26" rx="5" fill="#30384A"/></svg>