<svg xmlns="http://www.w3.org/2000/svg" width="800" height="500" viewBox="0 0 800 500"><defs><linearGradient id="s21" x1="0" y1="0" x2="0" y2="1"><stop offset="0" stop-color="#F2E8D5"/><stop offset="1" stop-color="#E6D7BC"/></linearGradient></defs><rect width="800" height="500" fill="url(#s21)"/><rect x="420" y="60" width="330" height="380" rx="10" fill="#8A5A33"/><path d="M420 180 h330 M420 300 h330" stroke="#6B4528" stroke-width="12"/><rect x="440" y="80" width="34" height="92" rx="3" fill="#E94B5B"/><rect x="482" y="90" width="34" height="82" rx="3" fill="#4F8BF0"/><rect x="524" y="80" width="34" height="92" rx="3" fill="#2ED3A9"/><rect x="566" y="90" width="34" height="82" rx="3" fill="#F2B632"/><rect x="608" y="80" width="34" height="92" rx="3" fill="#7B61FF"/><rect x="650" y="90" width="34" height="82" rx="3" fill="#FF8C6E"/><rect x="692" y="80" width="34" height="92" rx="3" fill="#3E9B4B"/><rect x="440" y="210" width="50" height="78" rx="6" fill="#fff" stroke="#30384A" stroke-width="3"/><rect x="500" y="210" width="50" height="78" rx="6" fill="#FFE6A3" stroke="#30384A" stroke-width="3"/><rect x="560" y="210" width="50" height="78" rx="6" fill="#C9E7FF" stroke="#30384A" stroke-width="3"/><rect x="620" y="210" width="50" height="78" rx="6" fill="#F7C6D9" stroke="#30384A" stroke-width="3"/><rect x="680" y="210" width="50" height="78" rx="6" fill="#D8F3E4" stroke="#30384A" stroke-width="3"/><g transform="translate(470 330)"><path d="M0 60 h120 v-30 c-20 -10 -40 -30 -50 -30 h-40 l-30 40 Z" fill="#E94B5B"/><path d="M0 60 h120" stroke="#fff" stroke-width="8"/></g><g transform="translate(60 80)"><g transform="translate(0 0)"><rect width="96" height="106" fill="#fff" stroke="#C9B48F" stroke-width="5" stroke-dasharray="6 4"/><rect x="12" y="12" width="72" height="62" fill="#E94B5B"/></g><g transform="translate(110 0)"><rect width="96" height="106" fill="#fff" stroke="#C9B48F" stroke-width="5" stroke-dasharray="6 4"/><rect x="12" y="12" width="72" height="62" fill="#4F8BF0"/></g><g transform="translate(220 0)"><rect width="96" height="106" fill="#fff" stroke="#C9B48F" stroke-width="5" stroke-dasharray="6 4"/><rect x="12" y="12" width="72" height="62" fill="#2ED3A9"/></g><g transform="translate(0 120)"><rect width="96" height="106" fill="#fff" stroke="#C9B48F" stroke-width="5" stroke-dasharray="6 4"/><rect x="12" y="12" width="72" height="62" fill="#F2B632"/></g><g transform="translate(110 120)"><rect width="96" height="106" fill="#fff" stroke="#C9B48F" stroke-width="5" stroke-dasharray="6 4"/><rect x="12" y="12" width="72" height="62" fill="#7B61FF"/></g><g transform="translate(220 120)"><rect width="96" height="106" fill="#fff" stroke="#C9B48F" stroke-width="5" stroke-dasharray="6 4"/><rect x="12" y="12" width="72" height="62" fill="#FF8C6E"/></g><g transform="translate(0 240)"><rect width="96" height="106" fill="#fff" stroke="#C9B48F" stroke-width="5" stroke-dasharray="6 4"/><rect x="12" y="12" width="72" height="62" fill="#3E9B4B"/></g><g transform="translate(110 240)"><rect width="96" height="106" fill="#fff" stroke="#C9B48F" stroke-width="5" stroke-dasharray="6 4"/><rect x="12" y="12" width="72" height="62" fill="#C95FD0"/></g><g transform="translate(220 240)"><rect width="96" height="106" fill="#fff" stroke="#C9B48F" stroke-width="5" stroke-dasharray="6 4"/><rect x="12" y="12" width="72" height="62" fill="#4FB6E8"/></g></g><ellipse cx="300" cy="450" rx="40" ry="12" fill="#E7C26B" stroke="#B9902F" stroke-width="3"/><ellipse cx="306" cy="438" rx="40" ry="12" fill="#E7C26B" stroke="#B9902F" stroke-width="3"/><ellipse cx="312" cy="426" rx="40" ry="12" fill="#E7C26B" stroke="#B9902F" stroke-width="3"/><ellipse cx="318" cy="414" rx="40" ry="12" fill="#E7C26B" stroke="#B9902F" stroke-width="3"/></svg>