<svg xmlns="http://www.w3.org/2000/svg" width="800" height="500" viewBox="0 0 800 500"><defs><linearGradient id="s22" x1="0" y1="0" x2="0" y2="1"><stop offset="0" stop-color="#FBE7D0"/><stop offset="1" stop-color="#F3D3B0"/></linearGradient></defs><rect width="800" height="500" fill="url(#s22)"/><rect x="0" y="360" width="800" height="140" fill="#C9A27A"/><g transform="translate(70 160)"><path d="M10 0 h120 l20 200 h-160 Z" fill="#F4EEE2"/><rect x="20" y="70" width="120" height="60" fill="#C8A26A"/><text x="80" y="110" font-family="sans-serif" font-size="26" font-weight="700" fill="#fff" text-anchor="middle">FLOUR</text></g><ellipse cx="300" cy="360" rx="24" ry="30" fill="#F7EBD8"/><ellipse cx="345" cy="365" rx="24" ry="30" fill="#F7EBD8"/><ellipse cx="325" cy="330" rx="24" ry="30" fill="#F7EBD8"/><g transform="translate(420 250)"><path d="M0 0 h160 c0 90 -30 120 -80 120 c-50 0 -80 -30 -80 -120 Z" fill="#7EC4E8"/><ellipse cx="80" cy="0" rx="80" ry="16" fill="#5AA9D6"/><path d="M100 -60 l-20 70" stroke="#AEB6C2" stroke-width="6"/><ellipse cx="104" cy="-74" rx="14" ry="22" fill="none" stroke="#AEB6C2" stroke-width="5"/></g><g transform="translate(620 290)"><rect width="140" height="90" rx="10" fill="#30384A"/><rect x="14" y="26" width="112" height="52" rx="6" fill="#FF8C3A" opacity=".85"/><circle cx="30" cy="12" r="6" fill="#AEB6C2"/><circle cx="54" cy="12" r="6" fill="#AEB6C2"/></g><rect x="230" y="400" width="100" height="40" rx="6" fill="#FFE57A"/></svg>