<svg xmlns="http://www.w3.org/2000/svg" width="800" height="500" viewBox="0 0 800 500"><defs><linearGradient id="s23" x1="0" y1="0" x2="0" y2="1"><stop offset="0" stop-color="#26324A"/><stop offset="1" stop-color="#3A4866"/></linearGradient></defs><rect width="800" height="500" fill="url(#s23)"/><rect x="0" y="400" width="800" height="100" fill="#1C2436"/><rect x="60" y="80" width="680" height="16" rx="8" fill="#8A5A33"/><g transform="translate(150 96)"><path d="M0 0 v18" stroke="#AEB6C2" stroke-width="5"/><path d="M-60 40 L0 18 L60 40 L70 290 L-70 290 Z" fill="#24325C"/><path d="M0 18 L-20 80 L0 70 L20 80 Z" fill="#00000033"/></g><g transform="translate(330 96)"><path d="M0 0 v18" stroke="#AEB6C2" stroke-width="5"/><path d="M-60 40 L0 18 L60 40 L70 290 L-70 290 Z" fill="#C8322F"/><path d="M0 18 L-20 80 L0 70 L20 80 Z" fill="#00000033"/></g><g transform="translate(510 96)"><path d="M0 0 v18" stroke="#AEB6C2" stroke-width="5"/><path d="M-60 40 L0 18 L60 40 L70 290 L-70 290 Z" fill="#F4F7FB"/><path d="M0 18 L-20 80 L0 70 L20 80 Z" fill="#D9DFEA"/></g><g transform="translate(690 96)"><path d="M0 0 v18" stroke="#AEB6C2" stroke-width="5"/><path d="M-60 40 L0 18 L60 40 L70 290 L-70 290 Z" fill="#2E3E5C"/><path d="M0 18 L-20 80 L0 70 L20 80 Z" fill="#00000033"/></g><g transform="translate(150 240)"><path d="M0 -24 l8 16 l18 2 l-13 12 l4 18 l-17 -9 l-17 9 l4 -18 l-13 -12 l18 -2Z" fill="#E7C26B"/></g><path d="M300 220 h60 M300 250 h60" stroke="#F2E26B" stroke-width="10"/><g transform="translate(510 230)"><rect x="-8" y="-26" width="16" height="52" fill="#E94B5B"/><rect x="-26" y="-8" width="52" height="16" fill="#E94B5B"/></g><g transform="translate(690 210)" fill="#E7C26B"><path d="M-40 0 h80 l-10 8 h-60Z"/><circle r="10"/></g></svg>