<svg xmlns="http://www.w3.org/2000/svg" width="800" height="500" viewBox="0 0 800 500"><defs><linearGradient id="s29" x1="0" y1="0" x2="0" y2="1"><stop offset="0" stop-color="#0A0F24"/><stop offset="1" stop-color="#121A38"/></linearGradient></defs><rect width="800" height="500" fill="url(#s29)"/><circle cx="294.1" cy="190.2" r="1.9" fill="#fff" opacity="0.98"/><circle cx="208.6" cy="179.7" r="2.1" fill="#fff" opacity="0.91"/><circle cx="208.6" cy="3.0" r="1.0" fill="#fff" opacity="0.47"/><circle cx="225.2" cy="102.0" r="2.4" fill="#fff" opacity="0.96"/><circle cx="337.2" cy="0.1" r="1.5" fill="#fff" opacity="0.57"/><circle cx="683.0" cy="13.5" r="1.7" fill="#fff" opacity="0.92"/><circle cx="304.5" cy="95.2" r="1.6" fill="#fff" opacity="0.85"/><circle cx="525.2" cy="13.2" r="1.8" fill="#fff" opacity="0.67"/><circle cx="61.1" cy="61.1" r="1.3" fill="#fff" opacity="0.95"/><circle cx="265.3" cy="103.3" r="0.8" fill="#fff" opacity="0.45"/><circle cx="505.7" cy="152.1" r="2.5" fill="#fff" opacity="0.41"/><circle cx="476.2" cy="79.1" r="1.0" fill="#fff" opacity="0.96"/><circle cx="640.9" cy="59.6" r="1.1" fill="#fff" opacity="0.76"/><circle cx="12.2" cy="150.3" r="1.1" fill="#fff" opacity="0.80"/><circle cx="61.7" cy="0.8" r="2.0" fill="#fff" opacity="0.74"/><circle cx="364.6" cy="97.3" r="1.9" fill="#fff" opacity="0.98"/><circle cx="377.9" cy="141.2" r="2.5" fill="#fff" opacity="0.44"/><circle cx="150.8" cy="159.5" r="2.0" fill="#fff" opacity="0.70"/><circle cx="769.9" cy="149.9" r="0.9" fill="#fff" opacity="0.91"/><circle cx="536.2" cy="57.9" r="2.4" fill="#fff" opacity="0.92"/><rect x="0" y="300" width="800" height="200" fill="#151B3C"/><path d="M80 300 C 150 230 650 230 720 300 L720 440 L80 440 Z" fill="#2E3770"/><path d="M80 330 C 200 290 600 290 720 330" stroke="#3E4890" stroke-width="10" fill="none"/><ellipse cx="300" cy="260" rx="64" ry="54" fill="#E9C2A0"/><path d="M240 250 c 10 -60 110 -60 120 0" fill="#3A2416"/><g transform="translate(400 210) rotate(-8)"><rect width="70" height="120" rx="12" fill="#1E2330"/><rect x="6" y="10" width="58" height="96" rx="6" fill="#8FE3FF"/></g><circle cx="435" cy="270" r="140" fill="#8FE3FF" opacity=".08"/><g transform="translate(520 140)"><rect width="70" height="44" rx="14" fill="#FF5C8D"/><path d="M14 44 l-6 14 l18 -14Z" fill="#FF5C8D"/><circle cx="22" cy="22" r="5" fill="#fff"/><circle cx="36" cy="22" r="5" fill="#fff"/><circle cx="50" cy="22" r="5" fill="#fff"/></g><g transform="translate(600 200)"><rect width="70" height="44" rx="14" fill="#2ED3A9"/><path d="M14 44 l-6 14 l18 -14Z" fill="#2ED3A9"/><circle cx="22" cy="22" r="5" fill="#fff"/><circle cx="36" cy="22" r="5" fill="#fff"/><circle cx="50" cy="22" r="5" fill="#fff"/></g><g transform="translate(530 250)"><rect width="70" height="44" rx="14" fill="#F2B632"/><path d="M14 44 l-6 14 l18 -14Z" fill="#F2B632"/><circle cx="22" cy="22" r="5" fill="#fff"/><circle cx="36" cy="22" r="5" fill="#fff"/><circle cx="50" cy="22" r="5" fill="#fff"/></g></svg>